# xmcd
#
# Track frame offsets: 
#        151
#        14203
#        32269
#        43015
#        59113
#        74333
#        93914
#        126816
#        146025
#        164505
#
# Disc length: 2464 seconds
#
# Revision: 2
# Processed by: cddbd v1.5.2PL0 Copyright (c) Steve Scherf et al.
# Submitted via: ExactAudioCopy v0.99pb4
#
DISCID=92099e0a
DTITLE=Gentle Giant - The Missing Piece (35th Anniversary Edition)
DYEAR=1977
DGENRE=Progressive Rock
TTITLE0=Two Weeks In Spain
TTITLE1=I'm Turning Around
TTITLE2=Betcha Thought We Couldn't Do It
TTITLE3=Who Do You Think You Are?
TTITLE4=Mountain Time
TTITLE5=As Old As You're Young
TTITLE6=Memories Of Old Days
TTITLE7=Winning
TTITLE8=For Nobody
TTITLE9=For Nobody (Live)
EXTD=YEAR: 1977
EXTT0=
EXTT1=
EXTT2=
EXTT3=
EXTT4=
EXTT5=
EXTT6=
EXTT7=
EXTT8=
EXTT9=
PLAYORDER=
